PathFileType	4	(X/Y/Z)	C:/Users/CLatella/Desktop/xsens/7Novembre/Claudia/Claudia mvnx and c3d/Claudia-022.trc	
DataRate	CameraRate	NumFrames	NumMarkers	Units	OrigDataRate	OrigDataStartFrame	OrigNumFrames	
240.00	240.00	4	64	mm	240.00	696	1113	
Frame#	Time	pHipOrigin			pRightASI			pLeftASI			pRightCSI			pLeftCSI			pRightIschialTub			pLeftIschialTub			pSacrum			pL5SpinalProcess			pL3SpinalProcess			pT12SpinalProcess			pPX			pIJ			pT4SpinalProcess			pT8SpinalProcess			pC7SpinalProcess			pTopOfHead			pRightAuricularis			pLeftAuricularis			pBackOfHead			pRightAcromion			pLeftAcromion			pRightArmLatEpicondyle			pRightArmMedEpicondyle			pLeftArmLatEpicondyle			pLeftArmMedEpicondyle			pRightUlnarStyloid			pRightRadialStyloid			pRightOlecranon			pLeftUlnarStyloid			pLeftRadialStyloid			pLeftOlecranon			pRightTopOfHand			pRightPinky			pRightBallHand			pLeftTopOfHand			pLeftPinky			pLeftBallHand			pRightGreaterTrochanter			pRightKneeLatEpicondyle			pRightKneeMedEpicondyle			pRightPatella			pLeftGreaterTrochanter			pLeftKneeLatEpicondyle			pLeftKneeMedEpicondyle			pLeftPatella			pRightLatMalleolus			pRightMedMalleolus			pRightTibialTub			pLeftLatMalleolus			pLeftMedMalleolus			pLeftTibialTub			pRightHeelFoot			pRightFirstMetatarsal			pRightFifthMetatarsal			pRightPivotFoot			pRightHeelCenter			pRightToe			pLeftHeelFoot			pLeftFirstMetatarsal			pLeftFifthMetatarsal			pLeftPivotFoot			pLeftHeelCenter			pLeftToe			
		X1	Y1	Z1	X2	Y2	Z2	X3	Y3	Z3	X4	Y4	Z4	X5	Y5	Z5	X6	Y6	Z6	X7	Y7	Z7	X8	Y8	Z8	X9	Y9	Z9	X10	Y10	Z10	X11	Y11	Z11	X12	Y12	Z12	X13	Y13	Z13	X14	Y14	Z14	X15	Y15	Z15	X16	Y16	Z16	X17	Y17	Z17	X18	Y18	Z18	X19	Y19	Z19	X20	Y20	Z20	X21	Y21	Z21	X22	Y22	Z22	X23	Y23	Z23	X24	Y24	Z24	X25	Y25	Z25	X26	Y26	Z26	X27	Y27	Z27	X28	Y28	Z28	X29	Y29	Z29	X30	Y30	Z30	X31	Y31	Z31	X32	Y32	Z32	X33	Y33	Z33	X34	Y34	Z34	X35	Y35	Z35	X36	Y36	Z36	X37	Y37	Z37	X38	Y38	Z38	X39	Y39	Z39	X40	Y40	Z40	X41	Y41	Z41	X42	Y42	Z42	X43	Y43	Z43	X44	Y44	Z44	X45	Y45	Z45	X46	Y46	Z46	X47	Y47	Z47	X48	Y48	Z48	X49	Y49	Z49	X50	Y50	Z50	X51	Y51	Z51	X52	Y52	Z52	X53	Y53	Z53	X54	Y54	Z54	X55	Y55	Z55	X56	Y56	Z56	X57	Y57	Z57	X58	Y58	Z58	X59	Y59	Z59	X60	Y60	Z60	X61	Y61	Z61	X62	Y62	Z62	X63	Y63	Z63	X64	Y64	Z64	

696	2.896	9.29161	210.48661	935.91840	111.76327	96.61161	964.21557	99.35686	336.18729	954.71279	123.58895	120.31577	1042.98307	113.24148	320.08536	1035.06408	-58.97004	156.53193	929.79438	-64.14378	256.41672	925.83489	-33.15415	210.59220	994.78285	38.01113	215.71314	1035.01129	108.27892	218.30001	1123.75671	173.53135	218.82794	1199.40941	346.21801	222.78743	1163.72119	427.73076	219.83101	1252.62499	303.98342	215.66035	1334.66567	241.58182	217.71928	1272.10569	341.88896	216.29387	1372.46562	597.14423	220.88688	1474.93728	499.26558	148.71853	1439.88258	504.86167	288.03987	1420.29629	465.16116	225.58548	1470.66103	350.59985	30.72566	1355.62458	326.36775	414.11010	1315.66011	218.72236	-33.84046	1044.56687	210.69778	29.98656	1035.53922	165.24281	433.11567	1016.00573	170.78610	368.76072	1008.56188	239.52289	-5.49050	796.12192	276.31977	27.66365	802.72108	196.60199	-20.95891	1037.12302	160.17466	364.69564	770.25324	210.06427	361.10570	772.36497	142.85848	405.18805	1011.51830	359.89145	-41.07313	656.64221	287.67031	-44.24073	706.21505	258.89800	-4.38184	760.90884	264.12453	358.88838	606.22467	239.04775	399.53917	679.71285	195.75730	383.91237	737.04630	28.13879	58.70607	914.90669	11.66730	46.82760	525.13427	-2.74525	120.63253	517.63763	45.50777	94.39430	522.07226	-7.23267	362.31994	907.56843	-62.19043	357.14621	521.22757	-51.68457	282.54937	514.78679	-14.78210	323.51692	514.73400	11.93127	38.01113	115.77556	14.99328	98.03703	112.92472	68.78958	83.20213	491.24101	-62.34881	373.19535	112.60796	-53.95468	313.75017	108.80685	6.91591	328.42669	486.01448	-30.72566	65.99154	10.61144	136.15374	88.27028	5.06815	128.97386	10.87541	9.60837	154.68417	48.56977	6.81033	11.03379	61.76808	4.32904	221.15084	42.34017	6.59915	-102.99959	337.98226	7.33826	65.14685	345.21494	0.26397	44.61028	420.18132	5.22653	76.44460	387.55511	2.05894	-62.66557	349.49119	0.73911	140.79955	405.29363	1.47821 
697	2.900	9.23882	210.38102	935.91840	111.65768	96.55882	964.42674	99.19848	336.13450	954.92396	123.32499	120.26298	1043.24704	112.92472	320.03257	1035.32805	-59.02283	156.42634	929.63600	-64.19657	256.31114	925.67651	-33.36532	210.48661	994.67726	37.74716	215.66035	1035.06408	107.69819	218.19442	1124.02068	172.73945	218.77515	1199.83176	345.58449	222.68185	1164.72426	426.78048	219.77822	1253.83923	302.76918	215.66035	1335.51036	240.57875	217.66649	1272.73921	340.56913	216.29387	1373.41590	595.61323	220.83408	1476.57387	497.78737	148.66574	1441.25520	503.43625	288.03987	1421.72171	463.57736	225.53268	1471.98086	349.38560	30.62007	1356.46927	325.31189	414.05731	1316.50480	218.82794	-33.36532	1044.72525	210.80337	30.46169	1035.75040	165.50678	432.58773	1016.05852	170.99727	368.23279	1008.82585	239.47010	-5.49050	796.28030	276.26698	27.71645	802.77387	196.70758	-20.48377	1037.33419	160.38584	364.69564	770.30603	210.22265	361.10570	772.41776	143.12245	404.71291	1011.67668	359.73308	-41.12593	656.69500	287.51194	-44.29352	706.37343	258.79242	-4.38184	761.01442	264.23012	358.99397	606.22467	239.15334	399.64476	679.81843	195.91568	383.91237	737.15188	28.08600	58.65328	914.85390	11.56172	46.82760	525.13427	-2.85083	120.68533	517.63763	45.34939	94.44709	522.07226	-7.28547	362.21436	907.56843	-62.29601	357.14621	521.22757	-51.79016	282.49658	514.78679	-14.88769	323.46413	514.73400	11.98406	38.11671	115.77556	14.99328	98.08982	112.92472	68.68399	83.25493	491.18822	-62.34881	373.14256	112.66075	-53.95468	313.69738	108.80685	6.81033	328.37390	486.06728	-30.72566	66.04433	10.61144	136.15374	88.37587	5.01536	128.97386	10.98099	9.60837	154.68417	48.62257	6.75753	11.03379	61.82087	4.32904	221.20364	42.49855	6.54636	-102.99959	337.87668	7.39105	65.14685	345.21494	0.26397	44.55749	420.12853	5.22653	76.44460	387.55511	2.05894	-62.61277	349.43840	0.73911	140.74675	405.29363	1.47821 
698	2.904	9.18602	210.32823	935.91840	111.55210	96.50603	964.63791	99.09289	336.08171	955.18793	123.00823	120.21019	1043.45821	112.60796	319.92698	1035.59202	-59.07563	156.37355	929.42483	-64.24936	256.25834	925.51813	-33.52370	210.43382	994.57168	37.43040	215.55476	1035.11688	107.17026	218.14163	1124.28464	171.94755	218.72236	1200.25410	344.89818	222.57626	1165.67454	425.83020	219.72543	1255.10627	301.55493	215.60755	1336.35505	239.57568	217.61370	1273.37273	339.24930	216.24107	1374.41897	594.02943	220.72850	1478.21046	496.25637	148.61294	1442.62783	501.95804	287.98707	1423.14712	461.99356	225.42710	1473.30069	348.11856	30.51449	1357.26117	324.20323	414.00452	1317.34949	218.98632	-32.89018	1044.83083	210.85616	30.93683	1036.01436	165.66516	432.11259	1016.16411	171.20845	367.70485	1009.03702	239.47010	-5.43770	796.43868	276.21418	27.76924	802.87945	196.86596	-20.00863	1037.59816	160.59701	364.64285	770.41162	210.43382	361.05291	772.47055	143.33362	404.18498	1011.88786	359.52190	-41.17872	656.74779	287.35356	-44.34631	706.53181	258.68683	-4.38184	761.17280	264.28291	359.15235	606.22467	239.31172	399.69755	679.87123	196.07406	383.91237	737.25747	28.03321	58.60049	914.85390	11.45613	46.88039	525.08147	-2.95642	120.73812	517.58484	45.29659	94.49988	522.01947	-7.39105	362.16156	907.62122	-62.40160	357.09341	521.22757	-51.89575	282.49658	514.83959	-14.99328	323.41133	514.78679	11.98406	38.16951	115.72276	14.94048	98.14262	112.87193	68.63120	83.36051	491.18822	-62.29601	373.08976	112.66075	-53.95468	313.64458	108.80685	6.70474	328.32110	486.06728	-30.72566	66.09713	10.55865	136.15374	88.42866	4.96256	128.97386	11.03379	9.55557	154.68417	48.72815	6.75753	11.03379	61.87367	4.27625	221.20364	42.55134	6.49357	-102.99959	337.82388	7.39105	65.14685	345.16214	0.26397	44.55749	420.12853	5.22653	76.44460	387.50231	2.05894	-62.61277	349.38560	0.79190	140.74675	405.24084	1.47821 
699	2.908	9.08044	210.27544	935.91840	111.44651	96.45323	964.84909	98.93451	336.02891	955.45189	122.74426	120.10460	1043.72217	112.29120	319.87419	1035.90878	-59.07563	156.32076	929.26645	-64.30216	256.15276	925.35975	-33.73487	210.32823	994.46609	37.11364	215.50197	1035.22246	106.58953	218.03604	1124.49582	171.15565	218.61677	1200.72924	344.26466	222.52347	1166.67761	424.87992	219.61984	1256.37331	300.34069	215.55476	1337.25254	238.57261	217.56090	1274.00625	337.87668	216.18828	1375.36925	592.39284	220.67571	1479.89985	494.72537	148.56015	1444.05324	500.47983	287.93428	1424.62533	460.40977	225.37430	1474.67332	346.85153	30.40890	1358.10586	323.09457	413.95172	1318.19418	219.09191	-32.41504	1044.98921	210.90896	31.46477	1036.27833	165.87633	431.58466	1016.26969	171.41962	367.17692	1009.30099	239.36451	-5.43770	796.64985	276.16139	27.82203	802.98504	196.91875	-19.58629	1037.80933	160.75539	364.59005	770.51720	210.59220	361.00011	772.57614	143.49200	403.65704	1012.04624	359.25794	-41.28431	656.80059	287.19518	-44.39911	706.69019	258.58124	-4.38184	761.33118	264.33571	359.36352	606.27746	239.41730	399.75034	680.02961	196.23244	383.91237	737.36306	27.98041	58.54769	914.80110	11.35054	46.93318	525.02868	-3.00921	120.73812	517.58484	45.19101	94.49988	522.01947	-7.44385	362.10877	907.62122	-62.50719	357.04062	521.28036	-52.00133	282.44379	514.83959	-15.09886	323.41133	514.78679	12.03686	38.22230	115.72276	14.94048	98.24820	112.87193	68.52561	83.41330	491.18822	-62.29601	373.03697	112.66075	-53.95468	313.59179	108.85964	6.59915	328.21552	486.12007	-30.72566	66.14992	10.55865	136.15374	88.48145	4.90977	128.97386	11.08658	9.55557	154.68417	48.78095	6.70474	11.03379	61.92646	4.27625	221.15084	42.60414	6.44077	-102.99959	337.71830	7.39105	65.14685	345.21494	0.26397	44.50469	420.12853	5.22653	76.39181	387.55511	2.05894	-62.61277	349.28002	0.79190	140.69396	405.34643	1.47821 
